<?xml version="1.0" encoding="UTF-8" standalone="no"?>
<!-- Created with Inkscape (http://www.inkscape.org/) -->

<svg
   width="101.81424mm"
   height="67.929459mm"
   viewBox="0 0 101.81424 67.929459"
   version="1.1"
   id="svg1"
   xml:space="preserve"
   inkscape:export-filename="bitmap.png"
   inkscape:export-xdpi="2.7367003"
   inkscape:export-ydpi="2.7367003"
   xmlns:inkscape="http://www.inkscape.org/namespaces/inkscape"
   xmlns:sodipodi="http://sodipodi.sourceforge.net/DTD/sodipodi-0.dtd"
   xmlns="http://www.w3.org/2000/svg"
   xmlns:svg="http://www.w3.org/2000/svg"><sodipodi:namedview
     id="namedview1"
     pagecolor="#ffffff"
     bordercolor="#000000"
     borderopacity="0.25"
     inkscape:showpageshadow="2"
     inkscape:pageopacity="0.0"
     inkscape:pagecheckerboard="0"
     inkscape:deskcolor="#d1d1d1"
     inkscape:document-units="mm"><inkscape:page
       x="0"
       y="0"
       width="101.81424"
       height="67.929459"
       id="page2"
       margin="0"
       bleed="0" /></sodipodi:namedview><defs
     id="defs1" /><g
     inkscape:label="Camada 1"
     inkscape:groupmode="layer"
     id="layer1"
     transform="translate(-54.397041,-114.7213)"><path
       style="fill:#000000"
       d="m 101.66012,180.83923 c -0.50638,-4.27558 -3.784873,-8.76624 -7.828926,-10.72352 -2.089542,-1.01131 -2.186986,-1.02296 -10.575641,-1.26407 -4.656667,-0.13385 -13.054831,-0.25882 -18.662587,-0.27771 l -10.195921,-0.0343 0.220186,-5.20348 c 0.12714,-3.00457 0.511651,-6.54517 0.909908,-8.37847 4.326041,-19.9141 19.583417,-35.0726 39.656393,-39.39942 5.177208,-1.11597 15.064058,-1.11597 20.241268,0 9.73353,2.09811 17.76625,6.31782 24.85192,13.05512 4.30907,4.09722 7.41325,8.17894 9.94779,13.08046 3.78379,7.31743 5.42033,13.45944 5.76659,21.64231 l 0.22018,5.20348 -10.19592,0.0334 c -5.60775,0.0184 -13.92654,0.13743 -18.48619,0.26458 -8.20025,0.22867 -8.3127,0.24219 -10.35454,1.24478 -4.00744,1.96773 -7.66963,6.80939 -8.20538,10.84806 l -0.2282,1.72029 h -3.43319 -3.4332 z m 7.16186,-13.31399 c 1.96315,-1.87807 5.14299,-3.81423 7.6157,-4.63709 2.53075,-0.84218 2.64631,-1.08216 1.61035,-3.3444 -1.85376,-4.04807 -5.90893,-7.1818 -10.31169,-7.96862 -6.19173,-1.10652 -12.54877,2.23143 -15.176037,7.96862 -1.018365,2.22382 -0.899019,2.52678 1.240384,3.14872 4.044619,1.1758 8.323723,4.07506 10.512143,7.12238 l 1.11695,1.55532 1.07376,-1.3271 c 0.59057,-0.7299 1.63387,-1.86293 2.31844,-2.51783 z m -38.986468,-7.7169 c 0.325957,-2.71873 2.416561,-8.93148 3.895948,-11.57778 10.379566,-18.56679 33.94593,-24.40753 51.40944,-12.74145 4.77947,3.19281 8.89694,7.66305 11.73597,12.74145 1.47939,2.6463 3.56999,8.85905 3.89595,11.57778 l 0.2432,2.02847 h 4.01629 c 2.20897,0 4.0163,-0.13796 4.0163,-0.30657 0,-0.16861 -0.24458,-1.71642 -0.5435,-3.43958 -1.62173,-9.34839 -5.54508,-16.8958 -12.28815,-23.63887 -8.47895,-8.47895 -18.96506,-12.83165 -30.9128,-12.83165 -11.947731,0 -22.433836,4.3527 -30.91279,12.83165 -6.74307,6.74307 -10.666425,14.29048 -12.288147,23.63887 -0.298927,1.72316 -0.543504,3.27097 -0.543504,3.43958 0,0.16861 1.807334,0.30657 4.016297,0.30657 h 4.016296 z m 15.517719,-0.65854 c 1.112615,-3.51211 2.800432,-6.29188 5.33917,-8.7934 3.895048,-3.83794 9.014734,-5.90799 14.611759,-5.90799 9.29805,0 17.11944,5.7634 19.95094,14.70139 l 0.79535,2.51062 3.91436,0.0998 c 4.51822,0.11513 4.35454,0.2897 3.35289,-3.57578 -3.30778,-12.76515 -14.87825,-21.74758 -28.01354,-21.74758 -13.135283,0 -24.705749,8.98243 -28.013533,21.74758 -1.001645,3.86548 -1.165331,3.69091 3.352896,3.57578 l 3.914359,-0.0998 z"
       id="path1464" /></g></svg>
